#!OML:ASF F:\VICON\USERDATA\INSTALL\rory3\rory3.ASF
:FULLY-SPECIFIED
:DEGREES
88
root 0.23747600609664282 17.70312585900606 38.598153765041566 -3.990151748894145 -5.568518347475544 -2.5939119406246576
lfemur -19.59793070853295 0.18107762389027982 -22.662948799524276
ltibia 32.58370437566828
lfoot -8.050050653752624 -4.510266315002178
ltoes -2.740396745028995
rfemur -6.64069980180952 3.0798797639708484 23.04639480152223
rtibia 68.66241738562006
rfoot 17.95148688091718 -1.420525992897515
rtoes 23.789798860865538
lowerback nan 2.037796107946326 1.5530223994636705
upperback 0.4388487432764026 3.510164949359715 0.6442817698163046
thorax -5.340213372171029 1.7908806015465288 -0.7808579831311002
lowerneck -15.318966400760178 -2.9042146559054345 -1.623289423439075
upperneck 19.644191288153987 -4.31599852535984 1.3862975802062885
head 9.00460059657294 -1.8563669907232128 0.2352122481726686
lclavicle -2.6223033373301506e-15 -1.4528307799721937e-15
lhumerus -38.41977127352443 13.876981013611028 75.02736810745745
lradius 20.888897569122506
lwrist 3.174272331590431
lhand -28.840798326896483 23.466916603111823
lfingers nan
lthumb -2.8085956759167114 51.96516473575054
rclavicle -4.6516212450182205e-15 -3.409441560387236e-15
rhumerus -25.466241896937834 -15.678156042515367 -81.29844058385953
rradius 33.437241055557514
rwrist 4.96208461703168
rhand -18.924467357019182 nan
rfingers nan
rthumb 7.603290684334877 -6.532162581076937
89
root 0.23993458014060115 17.72552553065752 37.48549011410845 -4.341359105380182 -5.289814655559453 -2.201286364957353
lfemur -15.777411475934308 0.24126156889152428 -23.85281792036814
ltibia 31.723806013647764
lfoot -10.00205824025969 -4.134951697632768
ltoes -1.6633552099274378
rfemur -12.316097594307895 2.05069948694742 22.199914033274922
rtibia 75.23470698317547
rfoot 13.057714407710186 -3.804828018480851
rtoes 13.328925835362444
lowerback nan 1.6430628075934615 1.0309051865697128
upperback 0.5929026554938881 2.998419442431529 0.5000632128028102
thorax -5.089605905479579 1.5804470835099704 -0.3864734003954131
lowerneck -15.474564418849692 -2.780015094668933 -1.7459016667129827
upperneck 19.762233787885705 -3.673925952146356 0.9876085732616671
head 8.995042936582333 -1.6857077983955602 -0.03795914704839206
lclavicle -2.2870683153530285e-15 -4.536973924527225e-16
lhumerus -37.841907755106014 12.38419107130646 75.94987379069897
lradius 21.561112859814706
lwrist 2.6878452049668606
lhand -31.22448028656962 19.555880478882234
lfingers nan
lthumb -4.5204837069608566 49.23597325678794
rclavicle 1.696751067152342e-16 1.051782934668891e-15
rhumerus -26.72784516433064 -16.234608695213343 -81.13791854373984
rradius 32.060240319437604
rwrist 6.322920188679
rhand -18.941045517164902 nan
rfingers nan
rthumb 7.732878808745829 -7.439402599998351
90
root 0.2823471990967504 17.75774643888873 39.73592527904682 -4.405624719865189 -4.371355833888685 -1.361571174010927
lfemur -11.831145353488616 -0.3891669439676846 -25.043469488738282
ltibia 31.294087766899832
lfoot -11.61246872033594 -3.3050873779086722
ltoes -1.0544199834689842
rfemur -17.125274081670316 1.4808445292643206 21.486793533180855
rtibia 78.86315712347816
rfoot 6.365386868967576 -5.654264690974321
rtoes 14.884011610198858
lowerback nan 1.3305290290571912 0.4307557585215477
upperback 0.6814937121978011 2.5507845705332395 0.4107093261412005
thorax -4.654821005017375 1.3192652792104567 0.46254184059477843
lowerneck -15.485423898991698 -2.709941167328552 -1.958441491813772
upperneck 20.0603638116058 -3.0308876023600613 0.7239311791346723
head 9.0141495599509 -1.509089461589781 -0.1752610584107979
lclavicle -7.271752340220233e-16 -6.271945170316306e-17
lhumerus -36.22149205607497 11.211912719145237 76.9761762109264
lradius 21.67073794565313
lwrist 3.1145360912803053
lhand -31.69972360883978 18.19919487634806
lfingers nan
lthumb -5.152243139426158 47.489173390973434
rclavicle -1.2395640849813354e-15 -1.4735758564340305e-16
rhumerus -28.228696541827198 -16.775628329586205 -80.88107236924358
rradius 30.943687063998738
rwrist 7.68707767106434
rhand -18.61367298046971 nan
rfingers nan
rthumb 7.929350014944561 -8.310755817822896
91
root 0.2645939196417339 17.748299944845364 38.72150516692769 -4.52138200982102 -3.8573298274204113 -1.2322204360020024
lfemur -9.081552249940005 -1.2358903250483084 -25.6429784453525
ltibia 30.407795092131167
lfoot -12.462380242176906 -2.1918080709926087
ltoes 0.22395009569159363
rfemur -21.81932044827185 0.7605267620696559 21.31626912611737
rtibia 79.68627348551632
rfoot 1.2971316073343857 -6.139161308255943
rtoes 11.841126993380662
lowerback nan 0.7285624606186115 0.30077083474802335
upperback 0.608635127122319 1.8208855865967621 0.7241972867759017
thorax -4.836392216472243 0.91795215715328 0.8187042362401645
lowerneck -15.358579215770625 -2.707016862048822 -2.2069248517401956
upperneck 20.15647568497724 -2.535111010029131 0.7525319412588358
head 9.035278540988632 -1.2825989511676776 -0.02436261951955718
lclavicle 1.8769797449186614e-16 1.7180609377861518e-16
lhumerus -34.86145418750429 9.22046497245084 78.03980881141781
lradius 22.411576194011097
lwrist 4.990248179520142
lhand -30.31577530912372 20.0957804791286
lfingers nan
lthumb -3.5162464806795515 50.374897712497734
rclavicle -2.480058198305505e-15 -9.549950659728095e-16
rhumerus -29.260164406926734 -16.31568729131275 -80.55162505167455
rradius 30.491299932967713
rwrist 7.825293913564728
rhand -18.43042969288647 nan
rfingers nan
rthumb 7.9489399903994 -8.110722655524954
92
root 0.2815058233128332 17.746573106222797 40.48025903640908 -4.278255442176695 -2.955904473768718 -0.5678063060829879
lfemur -6.721164808789903 -2.2135540884949694 -26.6327693685299
ltibia 30.199841039449087
lfoot -12.891041464072652 -1.0007759705356039
ltoes 2.4750531859728433
rfemur -25.654376345070876 0.060098130282049134 21.007065135633386
rtibia 77.7966142918057
rfoot -2.920725469597235 -5.679692210811682
rtoes 11.022304470135637
lowerback nan 0.1910832268317049 0.010420326326984197
upperback 0.6953213464895117 0.835501786999292 0.9661631495433743
thorax -5.014430980582144 0.4468160605827819 1.1283642855537193
lowerneck -15.549964486986003 -2.6990926259334667 -2.2812990477528667
upperneck 20.222799335728748 -2.677048388732346 0.8253100599129105
head 9.438974687226466 -1.3902444427543141 -0.15918106083608677
lclavicle 2.830353783433494e-15 1.834161058518581e-15
lhumerus -32.82236798678056 6.635470443139823 79.30062566909837
lradius 23.561991359011373
lwrist 6.212569620742638
lhand -29.07060672341412 21.835318136400534
lfingers nan
lthumb -2.5660805919520486 51.65706170278001
rclavicle -2.4758749100553564e-15 5.697766207817832e-16
rhumerus -30.10214202187107 -16.135545047504984 -80.5237200789327
rradius 30.604033177055175
rwrist 6.944101092677371
rhand -18.84898747047863 nan
rfingers nan
rthumb 7.613123329402434 -7.023432087517745
93
root 0.23518250474573568 17.713640980810716 39.02450646458565 -4.166923846300396 -2.5074164995241763 -0.3623883779590613
lfemur -3.637183412460873 -2.969012742419645 -27.259591022425926
ltibia 29.93939026313108
lfoot -13.367108865785745 -0.7319867193277538
ltoes 4.0378369356082136
rfemur -28.7910235264375 -0.28985203509737634 20.71365650933503
rtibia 72.80911060938894
rfoot -6.782501504699177 -6.145860180852497
rtoes 6.0472015103134495
lowerback nan -0.25952557578622293 -0.5742335407432804
upperback 0.6355361113354768 -0.15797588680944796 1.1091355006376518
thorax -4.978732707473769 -0.0327575478566155 1.9199989489755855
lowerneck -15.856309622457351 -2.740052915754056 -2.509501003943923
upperneck 20.051239262972217 -2.4716088797124094 0.9520589150290688
head 9.513513895853997 -1.3037929442268124 -0.07870205270626181
lclavicle -6.768598186648744e-16 7.836300498075064e-16
lhumerus -30.7553102707323 4.282506256748192 80.36106214627947
lradius 24.898400044245587
lwrist 5.990653476447314
lhand -28.929996111252887 21.972151915904696
lfingers nan
lthumb -2.287049135340087 52.08796577500251
rclavicle -5.54975664035418e-15 -4.680601544633785e-16
rhumerus -30.655314189264125 -15.585569315645301 -80.70653764663065
rradius 31.170193746385486
rwrist 5.223091562359665
rhand -19.104952044987293 nan
rfingers nan
rthumb 7.259262186984475 -7.102778017077611
94
root 0.23996373550879171 17.70908512235428 41.42341089021726 -3.645924930555408 -1.5300026851596902 0.3407568470990432
lfemur -0.9068884497446952 -3.061895910586869 -27.6445847642833
ltibia 28.339755923487033
lfoot -12.677316034237453 -1.2646641366154778
ltoes 5.236753774427601
rfemur -30.703534849517844 0.5787250020402088 20.18818754857406
rtibia 64.60770178222154
rfoot -8.631762773169491 -7.461954530620236
rtoes 1.090991770609551
lowerback nan -0.624888995540228 -1.1485612102848326
upperback 0.7590219446035993 -0.6710020807168493 1.11476151775652
thorax -5.287453689439118 -0.22321482322396985 2.513156780154245
lowerneck -15.893220708464112 -2.7803776953895447 -2.6628445963214147
upperneck 19.955832653186246 -2.456155156299083 0.9683194206829417
head 9.207550666131091 -1.300895752906561 0.09238953940825266
lclavicle 4.3717059183138636e-15 4.905465883345522e-15
lhumerus -29.29411786270557 1.9096606686319384 80.80321434078199
lradius 27.11682400584664
lwrist 5.986233422637094
lhand -29.130332594568085 22.194197214131123
lfingers nan
lthumb -2.424080990155113 51.88161748203429
rclavicle -1.32532445655829e-15 7.438467431641996e-16
rhumerus -31.5117859879308 -15.153331928225064 -80.56798398922602
rradius 31.491614933401003
rwrist 4.347355512388222
rhand -19.09920977232307 nan
rfingers nan
rthumb 7.181363036553907 -7.009650271581984
95
root 0.18158076517950972 17.674133242311104 39.92278974701548 -3.3058304870178956 -1.1924730372172947 0.3920855033964328
lfemur 2.6777197250678917 -1.611753243608907 -29.152744172129022
ltibia 23.029594363013384
lfoot -10.347779161619979 -2.718661781095473
ltoes 6.72206474123788
rfemur -30.488625402830614 1.9466399495935667 18.20947614269286
rtibia 53.09419821497183
rfoot -7.812130473557103 -9.19171110993532
rtoes 0.8503702627577225
lowerback nan -0.8017478044770896 -2.8193168887321405
upperback 0.8140629403626813 -1.3950912179558774 0.9506452251594584
thorax -5.118766139150968 -0.5590474908654455 2.8923934613008226
lowerneck -16.020102556582664 -2.7900244883051992 -2.6383347661186507
upperneck 19.896581392310125 -2.5082821686596617 1.1284080117136108
head 9.602003869445099 -1.2748845955646662 0.12760669237391087
lclavicle -1.793315670198519e-15 -8.576149127322239e-16
lhumerus -27.600010039407177 0.2578503848855451 80.82554137415887
lradius 29.426586993202754
lwrist 6.655593540527381
lhand -29.05303125319777 22.374487747416982
lfingers nan
lthumb -2.2425023585305905 52.554886478401635
rclavicle -2.418955588066456e-15 -1.3178755898167991e-15
rhumerus -32.51461889566083 -15.328491113163885 -80.34688456704824
rradius 31.32975941332177
rwrist 3.894745057047402
rhand -19.011549193348614 nan
rfingers nan
rthumb 7.282909960466496 -7.187300062385156
